<?xml version="1.0" encoding="iso-8859-1" standalone="no"?> 
<?xml-stylesheet href="latex-3124Ugq.css" type="text/css"?> 
<svg xmlns="http://www.w3.org/2000/svg" xmlns:xlink="http://www.w3.org/1999/xlink" width="179.75952pt" height="99.6685pt" viewBox="-89.87976 -92.51337 179.75952 99.6685 "> 
<g transform="translate(0, 7.15514 ) scale(1,-1) translate(0,92.51337 )"> 
                           <g> 
 <g stroke="rgb(0.0%,0.0%,0.0%)"> 
 <g fill="rgb(0.0%,0.0%,0.0%)"> 
 <g stroke-width="0.4pt"> 
 <g> 
 <g stroke="rgb(0.0%,28.23486%,43.92242%)"> 
 <g fill="rgb(0.0%,28.23486%,43.92242%)"> 
 <g> 
 <g stroke="rgb(25.0%,46.17615%,57.9422%)"> 
 <g stroke-width="1.2pt"> 
 <g> 
 <g stroke="rgb(25.0%,46.17615%,57.9422%)"> 
 <g stroke-width="1.2pt"> 
 <g> 
 <clipPath id="pgfcp1"> <path d=" M  28.37428 6.55515 L  -28.37428 6.55515 C  -30.58345 6.55515 -32.37428 4.76431 -32.37428 2.55515 L  -32.37428 -2.55515 C  -32.37428 -4.76431 -30.58345 -6.55515 -28.37428 -6.55515 L  28.37428 -6.55515 C  30.58345 -6.55515 32.37428 -4.76431 32.37428 -2.55515 L  32.37428 2.55515 C  32.37428 4.76431 30.58345 6.55515 28.37428 6.55515 Z M  -32.37428 -6.55515  "/> 
</clipPath> 
 <g clip-path="url(#pgfcp1)"> 
 <g transform="matrix(1,0,0,1,0.0,0.0)"> 
 <g transform="matrix(1.2903,0,0,0.26126,0.0,0.0)"> 
 <g transform="matrix(1.0,0.0,0.0,1.0,0.0,0.0)"> 
  <linearGradient id="pgfsh2" gradientTransform="rotate(90)"> 
 <stop offset=" 0.0" stop-color=" rgb(80.0003%,82.82318%,84.39178%) "/> 
 <stop offset=" 0.25" stop-color=" rgb(80.0003%,82.82318%,84.39178%) "/> 
 <stop offset=" 0.5" stop-color=" rgb(90.00092%,91.41235%,92.19666%) "/> 
 <stop offset=" 0.75" stop-color=" rgb(100.0%,100.0%,100.0%) "/> 
 <stop offset=" 1.0" stop-color=" rgb(100.0%,100.0%,100.0%) "/> 
 </linearGradient> 
 <g transform="translate(-50.1875,-50.1875)"> 
 <rect width="100.375" height="100.375" style="fill:url(#pgfsh2); stroke:none"/> 
 </g> 
 </g> 
 </g> 
 </g> 
 </g> 
 </g> 
 <path d=" M  28.37428 6.55515 L  -28.37428 6.55515 C  -30.58345 6.55515 -32.37428 4.76431 -32.37428 2.55515 L  -32.37428 -2.55515 C  -32.37428 -4.76431 -30.58345 -6.55515 -28.37428 -6.55515 L  28.37428 -6.55515 C  30.58345 -6.55515 32.37428 -4.76431 32.37428 -2.55515 L  32.37428 2.55515 C  32.37428 4.76431 30.58345 6.55515 28.37428 6.55515 Z M  -32.37428 -6.55515  " style="fill:none"/> 
 </g> 
 </g> 
 </g> 
 <g> 
 <g transform="matrix(1.0,0.0,0.0,1.0,-28.8747,-3.05556)"> 
 <g fill="rgb(0.0%,28.23486%,43.92242%)"> 
 <text style="stroke:none" transform="scale(1,-1) translate(28.8747,0)" text-anchor="middle"  font-size="10"> 
   <tspan font-family="cmtt" font-size="10">class A</tspan></text> 
</g> 
 </g> 
 </g> 
 </g> 
 </g> 
 </g> 
 <g> 
 <g stroke="rgb(25.0%,46.17615%,57.9422%)"> 
 <g stroke-width="1.2pt"> 
 <g> 
 <g stroke="rgb(25.0%,46.17615%,57.9422%)"> 
 <g stroke-width="1.2pt"> 
 <g> 
 <clipPath id="pgfcp3"> <path d=" M  -28.5312 -36.12396 L  -85.27977 -36.12396 C  -87.48894 -36.12396 -89.27977 -37.9148 -89.27977 -40.12396 L  -89.27977 -45.23425 C  -89.27977 -47.44342 -87.48894 -49.23425 -85.27977 -49.23425 L  -28.5312 -49.23425 C  -26.32204 -49.23425 -24.5312 -47.44342 -24.5312 -45.23425 L  -24.5312 -40.12396 C  -24.5312 -37.9148 -26.32204 -36.12396 -28.5312 -36.12396 Z M  -89.27977 -49.23425  "/> 
</clipPath> 
 <g clip-path="url(#pgfcp3)"> 
 <g transform="matrix(1,0,0,1,-56.90547,-42.67911)"> 
 <g transform="matrix(1.2903,0,0,0.26126,0.0,0.0)"> 
 <g transform="matrix(1.0,0.0,0.0,1.0,0.0,0.0)"> 
  <linearGradient id="pgfsh2" gradientTransform="rotate(90)"> 
 <stop offset=" 0.0" stop-color=" rgb(80.0003%,82.82318%,84.39178%) "/> 
 <stop offset=" 0.25" stop-color=" rgb(80.0003%,82.82318%,84.39178%) "/> 
 <stop offset=" 0.5" stop-color=" rgb(90.00092%,91.41235%,92.19666%) "/> 
 <stop offset=" 0.75" stop-color=" rgb(100.0%,100.0%,100.0%) "/> 
 <stop offset=" 1.0" stop-color=" rgb(100.0%,100.0%,100.0%) "/> 
 </linearGradient> 
 <g transform="translate(-50.1875,-50.1875)"> 
 <rect width="100.375" height="100.375" style="fill:url(#pgfsh2); stroke:none"/> 
 </g> 
 </g> 
 </g> 
 </g> 
 </g> 
 </g> 
 <path d=" M  -28.5312 -36.12396 L  -85.27977 -36.12396 C  -87.48894 -36.12396 -89.27977 -37.9148 -89.27977 -40.12396 L  -89.27977 -45.23425 C  -89.27977 -47.44342 -87.48894 -49.23425 -85.27977 -49.23425 L  -28.5312 -49.23425 C  -26.32204 -49.23425 -24.5312 -47.44342 -24.5312 -45.23425 L  -24.5312 -40.12396 C  -24.5312 -37.9148 -26.32204 -36.12396 -28.5312 -36.12396 Z M  -89.27977 -49.23425  " style="fill:none"/> 
 </g> 
 </g> 
 </g> 
 <g> 
 <g transform="matrix(1.0,0.0,0.0,1.0,-85.78018,-45.73466)"> 
 <g fill="rgb(0.0%,28.23486%,43.92242%)"> 
 <text style="stroke:none" transform="scale(1,-1) translate(28.8747,0)" text-anchor="middle"  font-size="10"> 
 <tspan font-family="cmtt" font-size="10">class B</tspan></text> 
</g> 
 </g> 
 </g> 
 </g> 
 </g> 
 </g> 
 <g> 
 <g stroke="rgb(25.0%,46.17615%,57.9422%)"> 
 <g stroke-width="1.2pt"> 
 <g> 
 <g stroke="rgb(25.0%,46.17615%,57.9422%)"> 
 <g stroke-width="1.2pt"> 
 <g> 
 <clipPath id="pgfcp4"> <path d=" M  85.27977 -36.12396 L  28.5312 -36.12396 C  26.32204 -36.12396 24.5312 -37.9148 24.5312 -40.12396 L  24.5312 -45.23425 C  24.5312 -47.44342 26.32204 -49.23425 28.5312 -49.23425 L  85.27977 -49.23425 C  87.48894 -49.23425 89.27977 -47.44342 89.27977 -45.23425 L  89.27977 -40.12396 C  89.27977 -37.9148 87.48894 -36.12396 85.27977 -36.12396 Z M  24.5312 -49.23425  "/> 
</clipPath> 
 <g clip-path="url(#pgfcp4)"> 
 <g transform="matrix(1,0,0,1,56.90547,-42.67911)"> 
 <g transform="matrix(1.2903,0,0,0.26126,0.0,0.0)"> 
 <g transform="matrix(1.0,0.0,0.0,1.0,0.0,0.0)"> 
  <linearGradient id="pgfsh2" gradientTransform="rotate(90)"> 
 <stop offset=" 0.0" stop-color=" rgb(80.0003%,82.82318%,84.39178%) "/> 
 <stop offset=" 0.25" stop-color=" rgb(80.0003%,82.82318%,84.39178%) "/> 
 <stop offset=" 0.5" stop-color=" rgb(90.00092%,91.41235%,92.19666%) "/> 
 <stop offset=" 0.75" stop-color=" rgb(100.0%,100.0%,100.0%) "/> 
 <stop offset=" 1.0" stop-color=" rgb(100.0%,100.0%,100.0%) "/> 
 </linearGradient> 
 <g transform="translate(-50.1875,-50.1875)"> 
 <rect width="100.375" height="100.375" style="fill:url(#pgfsh2); stroke:none"/> 
 </g> 
 </g> 
 </g> 
 </g> 
 </g> 
 </g> 
 <path d=" M  85.27977 -36.12396 L  28.5312 -36.12396 C  26.32204 -36.12396 24.5312 -37.9148 24.5312 -40.12396 L  24.5312 -45.23425 C  24.5312 -47.44342 26.32204 -49.23425 28.5312 -49.23425 L  85.27977 -49.23425 C  87.48894 -49.23425 89.27977 -47.44342 89.27977 -45.23425 L  89.27977 -40.12396 C  89.27977 -37.9148 87.48894 -36.12396 85.27977 -36.12396 Z M  24.5312 -49.23425  " style="fill:none"/> 
 </g> 
 </g> 
 </g> 
 <g> 
 <g transform="matrix(1.0,0.0,0.0,1.0,28.03079,-45.73466)"> 
 <g fill="rgb(0.0%,28.23486%,43.92242%)"> 
 <text style="stroke:none" transform="scale(1,-1) translate(28.8747,0)" text-anchor="middle"  font-size="10"> 
 <tspan font-family="cmtt" font-size="10">class C</tspan></text> 
</g> 
 </g> 
 </g> 
 </g> 
 </g> 
 </g> 
 <g> 
 <g stroke="rgb(25.0%,46.17615%,57.9422%)"> 
 <g stroke-width="1.2pt"> 
 <g> 
 <g stroke="rgb(25.0%,46.17615%,57.9422%)"> 
 <g stroke-width="1.2pt"> 
 <g> 
 <clipPath id="pgfcp5"> <path d=" M  28.37428 -78.80309 L  -28.37428 -78.80309 C  -30.58345 -78.80309 -32.37428 -80.59392 -32.37428 -82.80309 L  -32.37428 -87.91338 C  -32.37428 -90.12254 -30.58345 -91.91338 -28.37428 -91.91338 L  28.37428 -91.91338 C  30.58345 -91.91338 32.37428 -90.12254 32.37428 -87.91338 L  32.37428 -82.80309 C  32.37428 -80.59392 30.58345 -78.80309 28.37428 -78.80309 Z M  -32.37428 -91.91338  "/> 
</clipPath> 
 <g clip-path="url(#pgfcp5)"> 
 <g transform="matrix(1,0,0,1,0.0,-85.35822)"> 
 <g transform="matrix(1.2903,0,0,0.26126,0.0,0.0)"> 
 <g transform="matrix(1.0,0.0,0.0,1.0,0.0,0.0)"> 
  <linearGradient id="pgfsh2" gradientTransform="rotate(90)"> 
 <stop offset=" 0.0" stop-color=" rgb(80.0003%,82.82318%,84.39178%) "/> 
 <stop offset=" 0.25" stop-color=" rgb(80.0003%,82.82318%,84.39178%) "/> 
 <stop offset=" 0.5" stop-color=" rgb(90.00092%,91.41235%,92.19666%) "/> 
 <stop offset=" 0.75" stop-color=" rgb(100.0%,100.0%,100.0%) "/> 
 <stop offset=" 1.0" stop-color=" rgb(100.0%,100.0%,100.0%) "/> 
 </linearGradient> 
 <g transform="translate(-50.1875,-50.1875)"> 
 <rect width="100.375" height="100.375" style="fill:url(#pgfsh2); stroke:none"/> 
 </g> 
 </g> 
 </g> 
 </g> 
 </g> 
 </g> 
 <path d=" M  28.37428 -78.80309 L  -28.37428 -78.80309 C  -30.58345 -78.80309 -32.37428 -80.59392 -32.37428 -82.80309 L  -32.37428 -87.91338 C  -32.37428 -90.12254 -30.58345 -91.91338 -28.37428 -91.91338 L  28.37428 -91.91338 C  30.58345 -91.91338 32.37428 -90.12254 32.37428 -87.91338 L  32.37428 -82.80309 C  32.37428 -80.59392 30.58345 -78.80309 28.37428 -78.80309 Z M  -32.37428 -91.91338  " style="fill:none"/> 
 </g> 
 </g> 
 </g> 
 <g> 
 <g transform="matrix(1.0,0.0,0.0,1.0,-28.8747,-88.41379)"> 
 <g fill="rgb(0.0%,28.23486%,43.92242%)"> 
 <text style="stroke:none" transform="scale(1,-1) translate(28.8747,0)" text-anchor="middle"  font-size="10"> 
 <tspan font-family="cmtt" font-size="10">class D</tspan></text> 
</g> 
 </g> 
 </g> 
 </g> 
 </g> 
 </g> 
 <g> 
 <g stroke-width="1.2pt"> 
 <g stroke="rgb(25.0%,46.17615%,57.9422%)"> 
 <path d=" M  -9.53653 -7.15514 L  -46.59717 -34.94533  " style="fill:none"/> 
 <g> 
 <g transform="matrix(-0.80385,-0.60277,0.60277,-0.80385,-46.59717,-34.94533)"> 
 <g> 
 <g stroke-width="0.95999pt"> 
 <g stroke-dasharray="none" stroke-dashoffset="0.0pt"> 
 <g stroke-linecap="round"> 
 <g stroke-linejoin="round"> 
 <path d=" M  -1.92 2.56 C  -1.76 1.59999 0.0 0.15999 0.48 0.0 C  0.0 -0.15999 -1.76 -1.59999 -1.92 -2.56  " style="fill:none"/> 
 </g> 
 </g> 
 </g> 
 </g> 
 </g> 
 </g> 
 </g> 
 </g> 
 </g> 
 </g> 
 <g> 
 <g stroke-width="1.2pt"> 
 <g stroke="rgb(25.0%,46.17615%,57.9422%)"> 
 <path d=" M  9.53653 -7.15514 L  46.59717 -34.94533  " style="fill:none"/> 
 <g> 
 <g transform="matrix(0.80385,-0.60277,0.60277,0.80385,46.59717,-34.94533)"> 
 <g> 
 <g stroke-width="0.95999pt"> 
 <g stroke-dasharray="none" stroke-dashoffset="0.0pt"> 
 <g stroke-linecap="round"> 
 <g stroke-linejoin="round"> 
 <path d=" M  -1.92 2.56 C  -1.76 1.59999 0.0 0.15999 0.48 0.0 C  0.0 -0.15999 -1.76 -1.59999 -1.92 -2.56  " style="fill:none"/> 
 </g> 
 </g> 
 </g> 
 </g> 
 </g> 
 </g> 
 </g> 
 </g> 
 </g> 
 </g> 
 <g> 
 <g stroke-width="1.2pt"> 
 <g stroke="rgb(25.0%,46.17615%,57.9422%)"> 
 <path d=" M  47.36896 -49.83424 L  10.30832 -77.62445  " style="fill:none"/> 
 <g> 
 <g transform="matrix(-0.80385,-0.60277,0.60277,-0.80385,10.30832,-77.62445)"> 
 <g> 
 <g stroke-width="0.95999pt"> 
 <g stroke-dasharray="none" stroke-dashoffset="0.0pt"> 
 <g stroke-linecap="round"> 
 <g stroke-linejoin="round"> 
 <path d=" M  -1.92 2.56 C  -1.76 1.59999 0.0 0.15999 0.48 0.0 C  0.0 -0.15999 -1.76 -1.59999 -1.92 -2.56  " style="fill:none"/> 
 </g> 
 </g> 
 </g> 
 </g> 
 </g> 
 </g> 
 </g> 
 </g> 
 </g> 
 </g> 
 <g> 
 <g stroke-width="1.2pt"> 
 <g stroke="rgb(25.0%,46.17615%,57.9422%)"> 
 <path d=" M  -47.36896 -49.83424 L  -10.30832 -77.62445  " style="fill:none"/> 
 <g> 
 <g transform="matrix(0.80385,-0.60277,0.60277,0.80385,-10.30832,-77.62445)"> 
 <g> 
 <g stroke-width="0.95999pt"> 
 <g stroke-dasharray="none" stroke-dashoffset="0.0pt"> 
 <g stroke-linecap="round"> 
 <g stroke-linejoin="round"> 
 <path d=" M  -1.92 2.56 C  -1.76 1.59999 0.0 0.15999 0.48 0.0 C  0.0 -0.15999 -1.76 -1.59999 -1.92 -2.56  " style="fill:none"/> 
 </g> 
 </g> 
 </g> 
 </g> 
 </g> 
 </g> 
 </g> 
 </g> 
 </g> 
 </g> 
 </g> 
 </g> 
 </g> 
 </g> 
 </g> 
 </g> 
 </g> 
 
                                  </g> 
</svg> 
